<svg xmlns="http://www.w3.org/2000/svg" xmlns:xlink="http://www.w3.org/1999/xlink" width="25.99" height="30" viewBox="0 0 25.99 30"><defs><style>.a{fill:#8597fc;}.b{fill:#a1aef9;}.c{fill:#5e77ff;}.d{fill:#4059e1;}.e{opacity:0.251;fill:url(#a);}</style><linearGradient id="a" x1="0.5" y1="1" x2="0.5" gradientUnits="objectBoundingBox"><stop offset="0" stop-color="#ab9fe5"/><stop offset="1" stop-color="#f6dcfc"/></linearGradient></defs><g transform="translate(-2)"><path class="a" d="M12.983,0,0,7.5v15L12.983,30l12.983-7.5V7.5L12.983,0" transform="translate(2)"/><path class="b" d="M12.983,15V0L0,7.5,12.983,15" transform="translate(2)"/><path class="c" d="M0,0V15L12.983,7.5,0,0" transform="translate(2 7.5)"/><path class="a" d="M12.983,0h0L0,7.5,12.983,15V0" transform="translate(14.983 7.5)"/><path class="d" d="M12.983,0,0,7.5,12.983,15V0" transform="translate(2 15)"/><path class="c" d="M0,15,12.983,7.5,0,0V15" transform="translate(14.983 15)"/><path class="a" d="M14.654,12.7V4.233L7.327,0,0,4.233V12.7l7.327,4.233L14.654,12.7" transform="translate(7.656 6.535)"/><path class="b" d="M7.327,12.7V4.233L0,0V16.931L7.327,12.7" transform="translate(14.983 6.535)"/><path class="e" d="M15,0,27.99,7.5v15L15,30,2.01,22.5V7.5Z"/></g></svg>